pu03
version=1
nRows=6
nColumns=43
inDegrees=yes
endheader
time	pelvis_tilt	pelvis_list	pelvis_rotation	pelvis_tx	pelvis_ty	pelvis_tz	hip_flexion_r	hip_adduction_r	hip_rotation_r	knee_angle_r	ankle_angle_r	subtalar_angle_r	mtp_angle_r	hip_flexion_l	hip_adduction_l	hip_rotation_l	knee_angle_l	ankle_angle_l	subtalar_angle_l	mtp_angle_l	lumbar_extension	lumbar_bending	lumbar_rotation	neck_flexion	neck_lateral_bending	neck_rotation	arm_flex_r	arm_add_r	arm_rot_r	elbow_flex_r	pro_sup_r	wrist_flex_r	wrist_dev_r	hand_finger_flex_r	arm_flex_l	arm_add_l	arm_rot_l	elbow_flex_l	pro_sup_l	wrist_flex_l	wrist_dev_l	hand_finger_flex_l
      0.00250000	      3.26727418	     15.25769838	    -92.97025953	     -0.00578852	      0.92121759	      1.15465624	     10.46803189	     -5.65889847	     -5.74924680	     -9.04270943	     16.40736607	     -2.61154216	     -2.63394620	     12.80835052	      0.84181559	     -9.25668538	     -7.51009250	     15.85710634	     -5.71145757	     -5.20297117	     26.54456239	     -5.26662523	    -12.28683129	     11.37084320	     15.05110893	     24.29238232	   -232.58365673	    -38.53213523	   -332.96387907	     74.05504747	    109.66274671	     14.45497280	     -2.58254068	     28.22740992	    186.88047493	    -42.93896862	     98.24988471	     72.68674025	     86.36097375	     19.30903873	     13.20420728	     40.55012353
      0.00500000	      3.26745404	     15.25649969	    -92.97075978	     -0.00576080	      0.92118765	      1.15476583	     10.46810875	     -5.65856770	     -5.74918863	     -9.04279832	     16.40719952	     -2.61146414	     -2.63402042	     12.80779260	      0.84150379	     -9.25669101	     -7.51020602	     15.85713863	     -5.71152676	     -5.20306413	     26.54596503	     -5.26697342	    -12.28741523	     11.37055035	     15.05110429	     24.29237114	   -232.58266139	    -38.53290277	   -332.96420332	     74.05468741	    109.66263714	     14.45509707	     -2.58227465	     28.22759473	    186.88045005	    -42.93867902	     98.25028073	     72.68674864	     86.36110903	     19.30899567	     13.20450490	     40.55069891
      0.00750000	      3.26528180	     15.26807739	    -92.97195345	     -0.00570790	      0.92115730	      1.15528722	     10.43889324	     -5.66138975	     -5.74825065	     -9.05908163	     16.40351108	     -2.61048734	     -2.63568281	     12.76302640	      0.83856348	     -9.25753536	     -7.52483197	     15.85883693	     -5.71355142	     -5.20509252	     26.60602817	     -5.26814371	    -12.29413825	     11.35987412	     15.05134282	     24.29191624	   -232.55210078	    -38.55991706	   -332.96603220	     74.03593529	    109.66039730	     14.46417869	     -2.57337494	     28.23489950	    186.88266887	    -42.92217897	     98.27046568	     72.68400207	     86.36539756	     19.31337574	     13.21464644	     40.56702237
      0.01000000	      3.26375226	     15.23127294	    -92.97330290	     -0.00571901	      0.92101550	      1.15589938	     10.36793740	     -5.66741504	     -5.75940701	     -9.08986948	     16.36685374	     -2.58854525	     -2.68396090	     12.63216149	      0.84966814	     -9.25099574	     -7.38741434	     15.96472729	     -5.73554955	     -5.26592632	     26.60353378	     -5.28317288	    -12.19217801	     10.92780787	     15.10841363	     24.24949555	   -232.22139790	    -38.76624214	   -332.44114699	     73.86559727	    109.51805361	     14.95867541	     -2.35133412	     28.55842130	    187.03077164	    -42.62295260	     98.83830216	     72.40855984	     86.47050956	     19.51410279	     13.58935667	     41.15239089
      0.01250000	      3.26411465	     15.22916597	    -92.97325710	     -0.00568795	      0.92095928	      1.15602714	     10.36856252	     -5.66757406	     -5.75935873	     -9.08980870	     16.36690110	     -2.58852987	     -2.68400932	     12.63207283	      0.84928622	     -9.25104201	     -7.38757394	     15.96479693	     -5.73558575	     -5.26600626	     26.60485035	     -5.28296967	    -12.19255648	     10.92802223	     15.10838379	     24.24954604	   -232.22082549	    -38.76677427	   -332.44164658	     73.86522128	    109.51772516	     14.95915652	     -2.35105793	     28.55883022	    187.03069705	    -42.62250112	     98.83857845	     72.40916086	     86.47034516	     19.51437321	     13.58956738	     41.15316408
      0.01500000	      3.26054242	     15.23882915	    -92.96995549	     -0.00560925	      0.92094337	      1.15659101	     10.34289323	     -5.68168028	     -5.75914897	     -9.10801689	     16.36856400	     -2.58921562	     -2.68506124	     12.58892171	      0.84678873	     -9.25335529	     -7.40793027	     15.96740843	     -5.73700016	     -5.26784056	     26.66486812	     -5.27859505	    -12.20022252	     10.92995536	     15.10749372	     24.25071136	   -232.19944310	    -38.79062636	   -332.44345998	     73.84220049	    109.51040580	     14.97852465	     -2.34174594	     28.57260516	    187.03355832	    -42.60271975	     98.85621660	     72.41945595	     86.46727092	     19.52660023	     13.59823048	     41.17549202
